<svg id="svg2" xmlns="http://www.w3.org/2000/svg" viewBox="0 0 271.08 214.71"><defs><style>.cls-1,.cls-8{fill:#5a8d3e;}.cls-1,.cls-2,.cls-3,.cls-4,.cls-5,.cls-7{stroke:#000;stroke-miterlimit:3.2;}.cls-1,.cls-2,.cls-3{stroke-width:1.46px;}.cls-1{fill-rule:evenodd;}.cls-2{fill:#9f5935;}.cls-3,.cls-6{fill:#fff;}.cls-4,.cls-5,.cls-7{stroke-width:0.88px;}.cls-5,.cls-7{fill:none;}.cls-5{stroke-linecap:round;}</style></defs><g id="layer1"><path id="path4147" class="cls-1" d="M14,183.12c-5.65-6.24-8.32-14.84-10.45-23-.06-.21-.11-.42-.17-.63-2-7.77-3.56-16.09-1.92-23.92C3,128,9.06,122.16,12.39,115.2,18,103.57,20.28,91.05,27.46,79.56l.6-.93c3.61-5.44,8.58-9.92,13.59-14.1a64.76,64.76,0,0,1,6.27-4.18s6.25-10.11,9.4-15.15c5-8,8.83-17,15.15-24A64.13,64.13,0,0,1,90.23,7.06c6.45-3.37,13.64-5.87,20.9-6.27,7.78-.44,15.61,1.67,23,4.18,6.49,2.2,13.17,4.84,18.28,9.4a21.31,21.31,0,0,1,3.14,4.7S173.65,9,183.1,7.06s21.08-2.61,27.82,0,7.92,6.09,11.49,10.45,7.78,9.8,9.41,15.67a18.69,18.69,0,0,1,0,5.22S249.38,47,256.37,53.56c3.59,3.39,5.92,8.5,8.49,12.14,1.79,2.54,4.95,3.91,5.43,6.5a7.93,7.93,0,0,1-.89,4.21,2.81,2.81,0,0,1-2.58,1.45c-2.91,2.93-2.09,10.7-2.09,10.7s-.48,4.59-2.55,6.49-4.55,1.17-6.53,3.11a26.6,26.6,0,0,1-4,5.55c-4,4.81-16.72,8.36-16.72,8.36a10.37,10.37,0,0,0,0,3.66,16.79,16.79,0,0,0,3.25,5.32c3.15,3.65,7.41,6.69,9.81,10.87,3.43,6,7.32,19.33,7.32,19.33s-14.54,28-26.13,38.14c-10.42,9.14-23.94,14.41-37.09,18.81-9.39,3.14-19.38,4.41-29.26,5.22-13.19,1.08-26.5.4-39.7-.52-24.87-1.73-50.53-1.56-74.19-9.4C36.7,199.43,25.22,194,15.23,184.43c-.45-.44-.88-.87-1.27-1.31Z"/><path id="path4151" class="cls-2" d="M84.62,171c-2.3-2.15-1.45-4.54-1-6.79a16.42,16.42,0,0,1,4.7-8.36,23.13,23.13,0,0,1,9.9-5.59c8.72-2.5,18.35-2.16,27.2-1.2,10,1.08,18.3,6.39,28.21,8.1,12.22,2.1,38.14,3.39,38.14,3.39s15,.31,22.46-.52c13.07-1.47,27.82-.39,38.66-7.84,1.87-1.28,2.26-1.47,3.83-1.5,2.34-.05,2.45,2.78,2.85,5.84.49,3.71-1.16,5.31-3.92,7.83-1.67,1.53-2.1,1.54-4.14,2.52a29.45,29.45,0,0,1-4.89,1.51s.7,5.9-.6,8.39c-1.45,2.77-4.45,4.62-7.31,5.9-6.75,3-21.87,3.47-21.87,3.47s-49.52-1.59-75.23-5.75c-7.42-1.2-14.5-4.18-21.94-5.22-11.57-1.62-26.48,3.8-35-4.18Z"/><path id="path4155" class="cls-3" d="M180.82,87.34c.92-2.89,3.14-4.32,5.45-6.28,4.13-3.51,12-5.74,18.39-7.37,7.77-2,15.88-2.47,23.89-2.85,8.22-.38,16.67-1.26,24.68.61,5,1.17,10.58,2.62,14,6.48A6.89,6.89,0,0,1,269.12,84c-.52,2.38-1.69,3-4.22,4.72s-7.79,3.41-11.3,4.15c-7.52,1.68-14.85,4.6-22.53,5.17-11.21.84-22.79-.14-34-1.94-3.32-.53-6.8-1-9.73-2.6-2.62-1.46-7-4.63-6.53-6.17Z"/><path id="path4153" class="cls-3" d="M96.6,84.38S116.32,96,127.26,98.79a68.43,68.43,0,0,0,23.27,1.48c11.27-1.07,21.65-1.79,29.47-10,3.73-3.91,6.38-7.83,5.17-12.93-.34-1.42-.33-3.91-1.81-4.28s-18.53-1.66-29.13-.15c-13.17,1.88-25.29,8.66-38.42,10.71-6.33,1-19.21.74-19.21.74Z"/><path id="path4204" class="cls-4" d="M251.69,92c0,.69-14.58,6.1-27.95,5.75-9.17-.25-11.67.93-12.35-1.22a13.84,13.84,0,0,1-.39-3c.11-6.23,5.12-14.72,10.94-19.27,2.9-2.27,7.2-2.5,10.62-3C244,69.67,251.69,80.45,251.69,92Z"/><path id="path4202" class="cls-5" d="M67.56,172.29s2.1,6.11,4.53,8.72c3.48,4,9.85,6,9.85,6"/><path id="circle4206" class="cls-4" d="M167.84,97.22a115.76,115.76,0,0,1-23.77,3c-11.54,0-18.26-2.31-18.26-2.31.06-11.54,12.92-22.48,22.57-22.38a21.76,21.76,0,0,1,14.47,5.66C166.83,85,167.18,91.16,167.84,97.22Z"/><ellipse id="path4214" class="cls-6" cx="140.78" cy="85.36" rx="3.32" ry="4.06"/><circle id="path4216" class="cls-6" cx="152.93" cy="91.22" r="5.73"/><ellipse id="ellipse4218" class="cls-6" cx="140.29" cy="94.73" rx="2.67" ry="2.59"/><ellipse id="ellipse4220" class="cls-6" cx="223.85" cy="82.84" rx="2.47" ry="3.02"/><circle id="circle4222" class="cls-6" cx="235.93" cy="86.61" r="4.81"/><ellipse id="ellipse4224" class="cls-6" cx="224.3" cy="91.51" rx="2.02" ry="1.96"/><path id="path4226" class="cls-5" d="M246.82,167.4c-5.92,3-21.52,5.62-32.35,5.83a479.53,479.53,0,0,1-52.38-1.83c-11-1-25-8.49-36-9.53-8.51-.8-26.43,1.85-26.43,1.85"/><path id="path4230" class="cls-5" d="M48.53,59.92C44.57,66.33,44,76.7,41.94,85"/><path id="path4232" class="cls-7" d="M155.36,19.44c3,5,4.75,11,2.42,19.92,6.23,4,4,6.37,7.29,11.07"/><path id="path4234" class="cls-7" d="M232.43,39c-2.26-.79-7.62-2.88-11.63-3.25-21-1.94-40-1.62-63.41,3.52"/><path id="path4236" class="cls-7" d="M157.68,39.22c-10.59-4.82-14.83-9.82-33.43-9.73-17.09.08-34.63,13-40.08,17.17"/><path id="path4238" class="cls-7" d="M235.24,111.66c-11.2,2.08-20,4.28-34.93,2.49"/><path id="path4240" class="cls-7" d="M190.57,109.1c2.74,1.67,11.62,4.38,16.32,11.23"/><path id="path4242" class="cls-7" d="M181.68,88.79A3.79,3.79,0,0,1,184,90.23c1.87,2.87-2.39,6.68-5,9-6.81,4.44-14.57,5-21.72,5.83-12.63,1.38-25.72,2-38-1-7.9-1.94-21.94-10.71-21.94-10.71"/><path id="path4244" class="cls-8" d="M180.62,91.16c.67-.85.73-1.18,1.69-1.24.78,0,1.53,1,1.71,1.78a2.33,2.33,0,0,1-.59,1.71A14.7,14.7,0,0,1,180,96.17s0-4.17.63-5Z"/><path id="path4246" class="cls-7" d="M97.15,84.12s-7.21,0-10.29-2.32c-1.46-1.08-2.7-1.68-2.09-3.39s2.87-2.71,4.7-3.14c3.77-.86,7.16.06,11.63-1.3s10.24-5.16,14.5-7.58,4.54-4.5,11.06-6.8,16.1-.91,16.1-.91"/><path id="path4248" class="cls-7" d="M97.31,68.48a110.37,110.37,0,0,0,10.53-3.93c5.54-2.69,10.09-7.22,15.74-9.64a69.08,69.08,0,0,1,18.09-4.8,98.78,98.78,0,0,1,19.9-.08c4.33.45,11.22,1.4,14.63,2.67s4,4.11,3.39,5.75-2.2,1-3.59,1.24"/><path id="path4250" class="cls-5" d="M184.23,73.05a7,7,0,0,0,1.05-2.67c-.1-3-2.33-5.79-3.79-8.1-1.89-3-6.11-2.3-7.84-3.14"/><path id="path4252" class="cls-5" d="M183.19,64.28s14.52-4.53,22.27-5.72c9-1.39,18.13-2.42,27.16-1.57,9.3.87,17.81,3.86,26.71,6.7A34,34,0,0,1,267.17,68"/><path id="path4254" class="cls-5" d="M188.43,55.25s18.48-5.22,28-5.84c10.28-.66,20.9-.43,30.82,2.35,4.61,1.3,12.8,6.53,12.8,6.53"/><path id="path4256" class="cls-5" d="M137.56,123.77c28.57-9.62,31.13-17.23,36.79-22.13"/></g></svg>